<svg xmlns="http://www.w3.org/2000/svg" viewBox="0 0 959 593"><g fill="#EEE" stroke="#800" class="states"><path d="M643 467v-7l-1-1-1-1-3-3 1-3 49-5-1-2-2-1v-8l-2-6 1-2v-4l2-4v-1l-2-1v-3l-2-2-3-6-12-46-46 4 1 2-1 67 4 33h4l2-4v-2l1-1h1l4 7v1l-4 2h4l5-2z" class="al"/><path d="M16 572h2l1 1-1 1h-2l-3 1h-3l2-1v-1h3zm8-2 1 1h1l1 1v-1l1 1 1 1v1l-4 2-2-1h-1l-2 1h-2l-1-2h5zm6 0h1v2h-1l-1-1zm2 0h1v1l-1 1zm0 3h4v1h-1l-1-1v1l-1-1zm167 7h2l-1 2h-1l-1-1 1-1m-1-3v-3l2-1 5 5 1 3 2 2v5h-1l-1-3-3-2h-1l1 3h2v2h-1l-4-4v-1l2-1v-1l-1-1-1-1-2-1h2l-1-1zm-4-9h1l3 3v1l-1-1v4h-1v2l-1-1v-2l1-1-2-3v-1zm2-1h4l3 3v1h-2v-1l-1-1h-1l1 2v1h-2v-2zm-13-9 1-1h2l4 2v2h-1l-1-1 1 2h1l1 2h-1l-2-2h-1v2l1-1 2 2h1l2 5v5l-2-2v-1l-2-2v-2l-1-2v2l-1 1v-4l-2-1-1-3-1-1zm7-3 1 2h3l1 2-1 1 2 3v1l-1 1v1l-2 2-1-2v-1l1-1v-1l-2-2v-3l-1-2zm-57-18-4 4v2l2-1 1-2 2-2zm-31 17 2 2v-2 1h5v-2l-1-1h-1v-2h-1zm-8 6 1 6h2l3-3v1l6-4 1-1-1-1v-2l-2 1v-1l-3-1-3 1v3l-1-2h-1l-1 1zm-3 8 1-1 2-1 2 1 1 1h-2l-1-1-1 1zm-5 3-1 1 2 2v-2zm-6-7h2zm-14 11v1h1zm0-3-1 1v2l1-1zm-2-1-1 1-1 1v1l-1 1h1v-1h1l1-1zm-5-2v2l1 1 2-1v-1h1l-1-1v1l-1-1zm-5 0 1 1v1l-1-1zm-4 2h2zm-3 3 1 1zm-26-32 1 1v1zm0-6v1zm24-19h6l1 2v1l-1 2h-3l-2-2h-1zm-21-15v2l2 2v1h-1l-2-1v-3zm18-23v1l2 2h2l1 1v2l2 2 2 1v1l-1 1-1-1h-3v-1l-1-2-2-2-2-1h-1l1-2zm17-4h1v1zm16 19h1v2l-2-1zm128 78h-1v2h1zm-158-4-1-1-4 1-3 1v2l2 1 1-1h2l5 1v-1l-2-1zm2 2v-2l1 1v1h2v-2l1 2h2l3-3h1v1l1 1h4l3-2h1v2l1-1v-1h6l2-1-1-2 1-1h2v-1h2l1-1 1 1 5-2v-2l6-2 2-2 1-1 1 1 2-1 2-2v-1l2-1 1-1 1-1-1-2h-3v-1l1-2h1l2-2h2l3-3v-2l2-2 4-4 2-1 2-1 2 1 2 3h-2l-1-2-3 2h-2v3l-3 5v2h3l-1 1h-1l-3 2v1l2 1h3l2-2h1l3-2 1-2h1l7 1 1-2 1-4-2 1 1-2-2-2 1-1v1h3l1-1h2l-1 2h2l-2 1 4 2h-3l-1 1v2l5-2 2 2 1-1 1 1 4 2h6l5 1 2 2h4l2-1 1 2-2 1 1 1 8 4 1 2 6 4 3-2-1-2-3-2 3 1 1 1v3l2-1 2 2-2-10 1 1 2 6 2 3h2l2 3h1v6h4l1 2 2 1 1 3-2 3 3 1 1-2v3l-1 1 1 2 1-3v-1h1v3l-1 1 1 3 1-2v3h1v1h2v-1h-1v-2h-1l1-1h1v-2 3l1 4h2l2-4v-2l-1-4v-3h-2l-3-2h-1l-2-1h-2v-2h-2v-2h-1v-2l-5-7-2-2v-1l-4-4-1-1-1-2h-2v-2l-1-2h-2l-2 1-2 2v2h-2l-2 3h-1v-3l-2-2-3-2v-2l-3-1v-2h-2l-1 1h-1l-1-1-1 1-2-1v-86l-7-4-2-1-2 1h-2l-2-1-5-1-5-3-6-1-2 1v-2l-2-1 1-1v-1l-3-1h-3v1l-1-1v-3l-1-1-2 3h-1v-1h2v-1l-2-3h-1l-5 3h-4 1l-2-1-5 4h-2l-1-1-3 2-3 3-3 3-1 1h-5l-3-1-2 3v3l2 2 2 5v5l3 2h4v1l-1 3 1 2-2-2v-3h-2l1 1v2l3 4h-1l-2 1-7-2v-2l2-2v-1l-2-1-3 1h-5l2 2-2-2-8 1-1 2 5 5-1 1v2l-1 1v2l4 3 4 1 5 1h7v-1l1 1v2h-3l1 3v4l-3 2h-2l-2-1-1 1-3 2h-2l-1-3h-3l-2 2-1 2-3 2-5 4-1 3 1 2 1 1h1l1 1-1 1-1 1 1 1-3 1 1 2 2 3v4l4 1 3-1 2-1v2l1 5-2 1v5l-1 1h-2l2 1h2l1-1 4-1 2 3 1-1 2 5 1 1 1-1v-3l1-1v2l1 1 1 1 5-2v2l-2 1-1 1-3 7-5 2-1 2v1h-1l-10 3-1 4h-2l1-1-2-2h-3l-5 3-3 1h-2v3z" class="ak"/><path d="m140 388 3-3v-2l-1-2h-1l-2-1 2-7 1-1 3-3 1-7 3-3 4-2 2-1-1-2-2-3-1-6-2-1-1-4 1-2 1-3 1-3-1-5 1-13 4-1 4 2 1 2h2l2-3 4-17 46 8 40 6-18 124-37-5-64-38v-3l2-1z" class="az"/><path d="m584 367 1-2h1l1-1h-1l1-2-2-1 1-1v-1h-1l1-1 1 1v-4l2 1-1-1 2-2v-1h-2l1-1 1-1h1l1-1-1-1v-1h2l-1-1v-1l-12 1 3-5 2-2v-2l-2-3-39 2-40 1 5 25-1 39 2 2 3-1h3l1 12 52-1 1-2 1-3-2-2v-2l1-1v-1l-2-1 1-1-1-1 2-7 3-2v-1l-1-1 3-6h2l1-1v-5l3-5h2v-3z" class="ar"/><path d="m69 366 4 5h-2l-1-2zm2-10 2 4 3 1v-1l-1-2-2-3zm-20-19v2l2 1h5l1-1h-3zm-5 0h3l1 3h-4zm47 45-1-3 1-3-1-7-2-5-1-2v-1l-7-9h-4l-2-2 1-1-1-4-2-1-4-1-3-1-1-2-4-7-3-2h-4l-3-3-5-1h-3l-2-3v-3l1-5 2-5-2-1-4-10-2-3-1-3-1-3v-2l-2-5-3-3 1-7 2-1 2-3-1-3-1-1h-2l-3-3-1-4v-7l1-5v-2l3 1v1l-1 1v2l4 4v-5l-2-4 1-1-1-1 2-2-1-3-2 1-1 3v2l-1 1h-1l-5-6 1-6-1-4-7-13 1-10 2-4v-6l-5-11v-6l7-7 2-3v-1l4-9v-9l1-2 66 19-17 63 2 3 70 105-1 2 1 4 2 1 1 6 2 3 1 2-2 1-4 2-3 3-1 7-3 3-1 1-2 7 2 1h1l1 2v2l-3 3h-3z" class="ca"/><path d="m375 323-17-1-52-4-52-7 11-88 45 5 38 4 33 2-2 22z" class="co"/><path d="M874 179v-1l-3-12v-1l-15 4-1 1-1-1-10 2 3 17 1 1-3 4 2 2 5-5 2-1 3-3h1l3-1h2l6-3 2-1 1-1 2 1z" class="ct"/><path d="M822 227h-1l-2 1-1 2 7 27 11-2-2-8-1 1-3-3-1-2h-2v-4l-2-2-1-1-1-1-1-3 1-3 1-2z" class="de"/><path d="m752 445-4-1h-2l-2 1v2l1 3v4h-2l-1-1-1-3-50 3-3-6-49 6-1 2 3 3 1 1 1 1v7l-1 1h1l1-1 11-2 9-1 8 2 8 5 3 1 2 2v3h2l2-1h3l2-1 3-2 3-3h3v-2l-1-1 2-1 5-1 1 1h1l3 1 3 2 1 2 1 1 3 1v3l2 2h1l2 1 1 2h1l1 2v1l1-1h3l1 1 1 1v1l3 2v10l-2 6 1 1v3l-1 2 1 1 2 2v2l1 1v-2l1-1 1-3-3-2 2-1 1 3 1 1 1-2h1v2l-3 4v1l-2 2v1l4 4 5 8 2 2v1l3 5 2 1 1-2-2 1-3-5v-1l2-1v-1l-1-2 1-1v1l1 1v4l-1-1-1 1 1 2 1 2h2l2 1 2 2 2 5 3 5v-1l3-1 3 1 1 2 3 4v1l2 3v3l2 1h2l3-1h2l2-1 1-1h1l2-2 2-2-1-3v-1l1-4v-1l1 2 1-2-1-7v-10l-1-7-1-2-7-11-5-9-2-4-1-3-1-4h1v-1l-1-2-4-4-7-10-6-10-4-11-1-3-1-1-1-4zm9 135h2l-1-1zm7-1v-1h2l4-4h1l2-1 1 1 1 1-2 1h-3l-3 3zm17-8-3 1-1 2h2zm4-3h-1l-1 2h1zm9-16-2 6-1 1-1 2-1 2-1 2-2 2v1l3-3 2-3 1-2 2-5z" class="fl"/><path d="M762 414v2l-4 6h-2 2v2l-1 1-1 7-2 6 1 2v5h-3l-4-1h-2l-2 1v2l1 3v4h-2l-1-1-1-3-50 3-3-6-1-2-2-1v-8l-2-6 1-2v-4l2-4v-1l-2-1v-3l-2-2-3-6-12-46 22-3 22-3v2l-2 1-2 3 1 2 6 3h2l3 4 1 2 4 5 3 2h1l2 1 1 3 2 1 2 1 3 2v2l3 3 5 2 3 7 1 2 3 2 3 5 1 3 4 1z" class="ga"/><path d="M317 554v3l2 2v1l-5 5v1l2 3 1 4v7l4 2 1 2 1-2 2-3 5-3 3-1 3-1 1-1 4-3-3-1-2-2 1-1-1-1h-2v-4l-3-2-5-2h-2l-4-3h-1zm-15-17-1 1-1 2 3 2 2 1 1 1v3h4l5-3v-2l-2-1-3-2h-2l-3 1-1-3zm-2 11 1-1h3v1zm-7-8 2 4 3-1v-2l-1-2zm-4-7-1 2h5l5 2 2-2v-1h-4zm-16-11-2 2-3 1 1 2 2 3v1h5l2 1 3-1v-1h-1v-2l-1-1-1 1-1-1v-1l-2-4h-1zm-32-12-4 3v2l3 1 2 1 2 1 3-2v-5l-1-1zm-11 5v1l-2 1v1l1 1 1-1 2-1v-2z" class="hi"/><path d="m165 183-24-5 8-38 3-5 1-3h1l-1-2-3-2v-4l4-6h2l2-3v-1l2-2 3-5 4-5v-3l-4-4-2-3 2-4-1-4 13-56 14 3-5 22 4 7-2 5 4 5h2l3 9v2l3 3h1l1 2h3v1l-7 17v4l1 1 2 2 2-1 4-2 2 2 1 2-1 3 3 10 2 3 2 2 1 3v4l2 2 2-2 7 2 2-2 9 2 3-3 1-1 2 2 1 4h1l-8 55-48-8z" class="id"/><path d="m624 266-1 5v2l2 4v1l1 2-1 2-1 2-2 4-3 6-1 7h-1l1 2v1l-2 2v1l2 3-4 1-1 1h-2v3l1 2v3h-1l-7-3-4 4v1h-3l-1-1-2-4v-2h1v-2l-2-2-1-2-2-4-5-1-8-8v-2l3-8-1-1 2-2v-1l-3-1-3-1-4 1-1-2 1-2-1-2-9-9-2-1-2-6-2-6 2-3 1-1v-2l-1-1 1-2h2l1-1 1-1v-2l1-3h1v-4l-1-1h-1l-1-2 1-4 3-1h2l5-2 1-2v-2l1-1 2-4v-2l-3-4h-1l-1-1v-1l-2-2-2-1v-1l46-3v5l4 4 1 4 1 4z" class="il"/><path d="m629 215-5 2-5-1 4 50v7l2 4v1l1 2-1 2-1 2-2 4-3 6-1 7h-1l1 2h1l1-1-1-1 5-1v1l1 1 1-1-1-2h3l2 1 3 2 2-3 4-2 3 3 1-2 1-3 3-2 1 1 2 2 3-1h1v-4l2-3 5-5v-2l1-3 2 1 7-5v-2l-2-2 1-2-7-57v-1l-32 3z" class="in"/><path d="m557 183 2 2 1 1-2 3v3l2 5 3 2h3l1 3v1l2 1 2 2v1l1 1h1l3 4v2l-2 4-1 1v2l-2 2-4 2h-2l-3 1-1 4 1 2h1l1 1v4h-1l-1 3v2l-1 1-1 1h-2l-1 2 1 1-1 2v1l-2-1-1-1v-2l-2-1-14 1-28 1h-26l-1-5v-8l-2-1v-6l-3-5v-3l-2-5-1-3v-2l-1-2v-2l-1-1v-1l-1-2-1-1 1-4 2-5-1-2-1-1-1-1 1-1 1-1-2-1v-2h31l36-1 19-1z" class="ia"/><path d="m459 260-44-2-36-2-4 67 67 3h62v-48l-3-1-3-4-2-3v-2l3-3v-1l-2-2-1 1-2-1-2-3z" class="ks"/><path d="m692 323-20 1-6 1-17 1h-3l-22 3-1-1h-4l2 3-1 1-23 1 1-2 1 1 1-1 1-4-1-1 1-2v-1l-1-1v-1l4-4 7 3h1v-3l-1-2v-3h2l1-1 4-1-2-3v-1l2-2v-1h2l-1-2 5-1v2h1l1-1-1-1v-1h3l2 1 3 2 2-3 4-2 3 3 1-2 1-3 3-2 1 1 2 2 3-1h1v-4l2-3 5-5v-2l1-3 2 1 7-5v-2l-2-2 1-2 1 1h3l1-1 3 1 3 4v1l4 1 2-1 2 2 2 1v-1l2-1 3 1h3l1-2 3-2 1 1 1 3 3 1 1 2v2l1 1-1 3 2 2 1 1h1v1l4 6h2l1 2h3l-5 7-3 1-3 3v2l-3 1v2l-1 1-2 1v2h-1l-7 4zm-98 11-1-1 1-1h1v2z" class="ky"/><path d="m603 473-2-2 1-1-5-7 1-5 1-1v-2l-36 3 1-12 3-5 6-9-2-2h2v-3l-2-3v-2l-1-1-2-7 1-1-52 1v20l1 4 3 2v6l4 4 1 5h1v7l-4 6 2 3-2 1 1 3v4l-2 4v1l-2 1 1 2 1 1 2-1 5-1h6l10 3 8 1 1-1h2l5 2h1l2-2-5-2-2 1h-1l-1-2 3-2h2v1h4l1 2 1 1 1 2 4 1 2 1v1h-1l-2 2 2 1 5 1 3 3 5-1h-4v-1l3-1v-1l1-1v-1h1v2h3v-2h1v3h2l-2 2 2-1 3-1 2-3-2 1v-5h3l1-1 1 2-1 2h3l5 1v2l2 1h3l1 1 2-1 1-2v-2h-2l-1-1-1-1-3-1h-3l-4-2v-2l1-1h3l-4-1 1-1h3l3-4-3-2 1-1-1-1h-1l-2 2v2l-1 1h-1l-1-2h-2v-1l1-1 1 1 2-2v-1zm-11-3 2 1 1 1h2l2 1v2l-1-1-2 1v1l-3 1h-2l-4-1 1-2 2-2 1-2zm-4 1v1l-2 2h-1v-2l1-1z" class="la"/><path d="m875 129 1 4 3 2 1 2 2 1h1l1-3-1-3 2-1 1-3-1-1 3-2-2-2 1-3 1-2 1 3 1-2 2 1h1v-2l3-1v-3l3-1 3-3v-1h-1v-5 2l2-1-1-3h-1v2l-1-2 1-1h1l1-1v3h2l3 1v-1l-1-2 1 1v-3l1 1v2l2 1 1-1v-1h1v-2h-2l-2 1 2-2v-1h2v1l2 2v-2l2-1v-3h1l2-1 1-2h2v-2l1 1 1-1 2-4v-2l-1-2-3-4h-2l-1 3-3-3 1-1v-2l-2-4h-6l-1-4-8-26-7-3h-3l-7 6-2-1-1-4h-3l-7 20 1 6-2 2v5l1 4h1v2l-2 4-1 1-2 3v7l-2-1-2 1zm35-25-1 1v1-1l1 1h2l-1-1v-1zm-2 3-1 1v1h1zm-3-2 1 1 1 1v-3l-1-1zm-1 5-2-2 2-2h1v1l1 1v1z" class="me"/><path d="M823 269v-1h-1zm12-4 1-2v-2l-1-1v1l-1 2v2l-1 1-4 1-1 1h-1l-1 1-1 1v-3l-1-1 1-1-2 1v-2l1-1h-2v-2l-1-1v3h-1l-1 1-2-1v-2l-1-1-1-1 1-1-1-1v-1l1-1h1l-1-1h-1l-1 1v-3l1-1h1v-1l-1-1-1 1-1 1-1-1v-2l1-1 1 1 1-1v-2l-1 1-1-2v-1l1-3 1-1h1v-5l-1 1-1 1 1 1-3 4v-1l-1 1-1 3h-2l2 1 1 1v1l1 1-1 1v4l-1 1 1 1 1 3 1 2 2 1v3l2 2v2h-1l-1-1h-2l-1-1-2-1-1 1h-2l-1-1-1-1-1-1h-2l-1 2-1-1-1-3 1-2v-1l-1-1h1l1-1 1-1 1-3-2-2-1 2-1-1h-2v-1h-3l-1-1h-1v-1h1v-1l-1-1h-2l-2-1h-1v-2h-1v-1l-1-1v-1h-3l-2-1h-1l-1 1h-1l-2 3-3 1-2-1-3 4-2-1-3 4-1 2-2 1-2-11 61-12 7 27 11-2v8zm-14-1-1 1 1 1 1 1v-1z" class="md"/><path d="M9e2 174h4v-2l-2-2 1 1-2 2h-2zm-9 2-1-1h1v-3h1l1-1 1 1h2v2h-1l-3 1zm-35-23 18-4 1-2 1-1 2-1v-1l2-1h1l2 3 1 1 1-1 1 1v1l-3 2v1l-1 1v1h-1l1 1-1 1 1 1h1v-1l1 1h2l2 2 1 3h1l1 1 1 2 1 1h4v-1l2-1 1-1-1-2v1l-2-3h-1l-1-1 1-1 2 1 2 2 1 3 2 3-1 3v-2l-1-1-4 2h-1l-1 1v1l-2 1-2 2-2 2h-2l4-3v-3l-1-1h-1v1l-1 2h-1v2l-1 1h-1v1l-2-3-1-1-3-2v-2h-1l-1-3-6 3v-1l-15 4-1 1-1-1-10 2-1-1 1-15z" class="ma"/><path d="M663 210v1l22-3v-1l4-6v-5l1-2 2-1 2-7 1-1 1 1-1 1v1h1l2-1v-10l-1-2-2-4v-2l-2-5v-2l-1-3-2-3-3-1-5 3-3 5v1l-3 3h-1l-3-3v-3l1-2h2l1-2 1-4v-1h2v-13l-1-1-2-1v-2h1l1 1v-2l-2-3v-1l-2-1h-2l-8-3-1-2h-5l-4-2h-1v1h-3 1v1l-2 2v2l1 2h2v1h-4l-3 3v2l1 6-2 3v-5l-1 6-1-3v-5l1-1v-2l-2 1-1 3-1 1-1 2h-2v1h-1v4l-3 1v1l1 2v5l-1 4-2 3 1 1 1 4-1 2v2l2 4 2 5 1 2 2 7v8l-1 4-2 4-1 3-2 3-1 1zm-96-97 4 4 17 4 1 1h4l1 1h2l5 1 2 1-1 1v1h4l1 2 1 4-2 3h2l1-1 1 1-1 3 1 2h1l1-2 3-4 2-6 2-2-1-2 1-1 1 2v2l2-2 1-3 2 1 1-2v2l-1 1-1 2 1 2 1-1 1-2 1-2h1v-2l2-2 8-1 2-3h4l4 1 4 3h1v-4l5 1h1l3-1 2 1h2v-1l-1-1h-2l-1-1 1-2h-4v-1l1-1 1 1 1-2h-1l1-1-2-1v-1l1-2h-2l-1 1h-2l-1 2h-2v-1h-2l-1 1h-1v-1l-3 1v-5l1-2-2 1h-2l-4 3h-6l-4 1-2 1-2 1-2 2-1 1v-2h-1v2h-2v1l-2-2h-1l-2 1h-3v-1l-2-2-2-2-1-2-2-1h-4l-1-1h-2l-2 3-1 1-1-1v-1l1-2 3-5h1l2-2 1-2h3v-3l-5 1h-2l-2 1-2 2-1 2-2 1-3 3-1 2-7 4-4 1h-2l-2 3-2 1-4 2zm101 4h4l1-1-1-2-1-1h-2l1 1h-2v1h-1v1zm-75-42h-2l-3 2-7 5 1 1 2 1 2-2-1-1 3-1h1l3-2-1-1zm41 63v1l2 1v-2zm0 2 1 1h-1zm21-21v1h1zm5 3v-1h-4 1l1 1zm-18 1v2h-1v2l1 1h1v-4z" class="mi"/><path d="m465 69-1 2v8l2 9 2 3v14l1 2v6l3 7v11l-1 2-3 1v2l1 2 1 2 2 1 2 1v40h28l36-1 19-1-1-4-1-3-2-3-3-1-5-3v-4l-7-3v-1h-3l-2-3-2-1v-5l-1-2 1-5 1-2v-3l-2-1h-1v-2l2-6 6-4v-13l1 1v-2h1l2 1-1-3 5-3 3-3 1-1 5-6 6-6 4-2 6-3 8-4-1-1-3 1h-3l-1-1-1-1-10 1-1-3h-2l-2 1-3 3h-4l-2-1-1-2-4-1v-1l-1-1h-1l-3 1-9-6h-3l-1-1-3 2-1 1-3 1h-2v-3h-6l-1-1h-3l-3-2 1-1-1-3-1-1v-3l-1-3-2-1h-3v8l-31-1z" class="mn"/><path d="M624 469h-5l-3-2-8 3v-1h-1v2h-1l-2 3h-1l-1-1-1-2 1-1-5-7 1-5 1-1v-1l-36 2 1-12 3-5 6-9-2-2h2v-3l-2-3v-2l-1-1-2-7 1-1 1-2 1-3-2-2v-2l1-1v-1l-2-1 1-1-1-1 2-7 3-2v-1l-1-1 3-6h2l1-1v-5l3-5h2v-3l38-3 1 2-1 67 4 33z" class="ms"/><path d="m555 249-1-1v-2l-2-1-14 1-28 1h-26l2 1-1 2 3 3 3 7 3 3h2l1-1 2 2v1l-3 3-1 2 3 3 3 5h3v59l40-1 39-2 2 3v2l-2 2-3 5 12-1 1-2 1-1-1-1-1-1h2l1-1-2-1 2-1v-1l-1-1v-1l-1-1 1-1h1v2l1 1 1-1 1-3 1 1 1-1 1-4-1-1 1-2v-1h-4l-1-2-2-4v-2h1v-2l-2-1-1-3-2-4-5-1-8-7v-3l3-7-1-2 2-1v-2l-3-1-3-1-4 1-1-2 1-2-1-2-9-9-2-1-2-6-2-6 2-3z" class="mo"/><path d="m247 131 57 7 51 6 2-21 6-67-54-5-54-8-66-12-5 22 4 7-2 5 4 5h2l3 9v2l3 3h1l1 2h3v1l-7 17v4l1 1 2 2 2-1 4-2 2 2 1 2-1 3 3 10 2 3 2 2 1 3v4l2 2 2-2 7 2 2-2 9 2 3-3 1-1 2 2 1 4h1z" class="mt"/><path d="m403 191 38 2 3 3h2l2 2h1l2-2 2 1 1-1h7l1 2 6 2 1 1 1 3h3l1 1v2l1 2v1l1 4 2 4v4l3 5v6l2 1v8l1 5 2 1v1l2 4 4 6h-33l-44-1-36-2 2-22-33-2 3-44z" class="ne"/><path d="m168 297-4 17-2 3h-2l-1-3-4-1-4 1-1 13 1 5-1 3-1 3-70-105-2-3 17-63 47 11 24 5 24 5z" class="nv"/><path d="M863 94h-2l-1-1-2 1v6l1 2-1 4 2 3v3l-1 2h-2v1l-2 1-1 2 1 3v4l-1 2 1 2-2 2 1 2-1 1 1 5v4l1 2v2l-1 2v1l2 3 18-4 1-2 1-1 2-1v-1l2-1h1l1-5-2-1-1-2-3-2-1-4-12-37z" class="nh"/><path d="m843 195-15-4-2 2v2l-3 6 2 1-1 2-1 1 1 4 2 1 1 3 2 1 5 3-4 3-1 2-2 3-2 1-1 1-1 2v3l1 3h1l2 2 2 1h2v2h1l1-2 1 1h2l-1 3 1 2h1l2-4 2-5 2-3 1-3-1-2 2-2v-2l-1-1 2-2-1-4v-8l-1-2v2h-4l-1-1 1-2v-1l1-1 1-2z" class="nj"/><path d="M358 333h-1l-8 99-32-2-34-4-1 3 2 2-30-4-2 10-16-2 18-124 52 6 52 5z" class="nm"/><path d="M873 182h-1l-1 1zm-31 22 1 1h2l1-1h2l3-1 5-2-1-1-2 1-2 1v-1l3-1 1-1h1l4-2-4 3 5-2 1-3h2l4-3 3-3 3-2 1-1-1-1-1 2-1 1-1-1-2 1v1h-1l1-1-2-1v1h1v1l-2 3h-2l1-2 1-1v-1l2-2 1-1h1l-1-1-1 1-2 1v1l-2 2v1l-2 1-7 2v1l-1 1h-2l-1-1v1h-1v1h-3v2h-1v2h-2l-2 2zm-1 0h-1v1l-1 2 1 1 2-3v-1zm-10-95v2h1v5l2 2v3l1 2-1 1v3l3 7-1 2 1 2 1-1 2 1 3 14v2l1 1-1 15 1 1 3 17 1 1-3 3 2 3-2 3-1 2-2 2v-1l1-6-15-4-2-2-2 1-3-2-3-6h-2v-2l-2-1-70 14-1-6 4-4 1-2 4-2v-2l3-2 1-2-2-3h-2l-2-3v-4l8-3 8-2h4l3 2 1-1 2-1 4-1h3l2-1 3-3 2-3h2l1-1v-3l-1-3h-1l2-2v-1h-2l-2-2v-3l6-6 1-2 3-7 6-6 2-2h3l21-5z" class="ny"/><path d="m829 3e2-29 6-40 8-29 3v5h-1l-2 1-2 6-3-2-3 3-1 2-1 1-1-1v-1h-1l-4 3-1 3-4 3-1 1-3 3h-4l-4 3-1 4-2 1h-1l-1 1v5l21-3 4-2h2l7-4 23-2v2h1l1-2 3 3 1 3 19-3 25 17 4-2 3-1h1l2 1v-1l1-5 2-4 5-6 4-4 6-2 2-1 1 1 1 1 3-7 4-5h-1l-4 6h-1l2-3v-1l-2-1 1 2h-2l-1-2-1 2h-2l1-3 1-1v-3h-2l1-1h7l2-2v-3l1-2h1l2-1-1-4-2-3-3-1-1 2v-1h-3l-1 1-2 1v-1h-1l-2 2h-3v-1l1-1 1 1h1l2-3 4-1 2-2h2l1 1 1 1v-3l-3-4v-1l-1 1-1-1zm7 31 3-2 4-4v-6l-2-5 2 2 1 3v7l-2 1-3 2-3 3zm2-19h-1v1l3 2-1-2zm3 2-2-3-2-3-2-3-2-5h-1l2 4v1l4 6 1 2z" class="nc"/><path d="m465 69-1 2v8l2 9 2 3v14l1 2v6l3 7v8h-30l-46-2-39-3 5-67 45 4 55 1z" class="nd"/><path d="m686 209 2-1 3 2h2v1h1l1-1 2 1h1v1h-3l-2 1 2 1 1-2h3l2 2 2-1 2-1 4-2 5-1 5-6 4-3 9-5 5 30-2 1 1 2v5l-1 3v5l-1 4 1 1-1 2-1 1-2 3-2 2-2 2-1-1-2 1v2h-1l-2 2 1 2h-1l1 2v1l-1 1h-1l-1 1v-2l-2-1-1 3v2l-1 1 1 4-2 1v3h-1l-4 1-1-2-3-1-1-3-1-1-3 2-1 2h-3l-3-1-2 1v1l-2-1-2-2-2 1-4-1v-1l-3-4-3-1-2 1h-2l-1-1-7-57 22-3z" class="oh"/><path d="m502 399-5-4-2-1-1 2h-5l-1-2-5 3-1-1h-4v2l-4 1-1-1h-2l-2-2-2 1-2-1-1-2-3 5h-1l-1-1v-2l-1-1-2 2-2-1v-1h-1l-3-2-3 3-2-1v-2h-2l-2-3-3-1-2 2-3-2h-3l-4-1h-2l-1-1-1-3-2-2-1 2-1-1-2-1-1 1h-1l-3-3-2-1 1-43-53-3 1-11 17 1 67 3h62v11l5 25-1 39z" class="ok"/><path d="m94 167 47 11 8-38 3-5 1-3h1l-1-2-3-2v-4l4-6h2l2-3v-1l2-2 3-5 4-5v-3l-4-4-2-3-30-7-3 1-5-1-2-1-1 1h-8l-1 1-4-1-1-1h-1l-5 1-1-1-2 1-1-2-2-1-1-1-1-1-3 1-2-1h-1l-1 1h-6l-6-4 1-5v-4l-4-4h-3l-1-1 1-1-1-1h-1l-1 1h-2v-1h-2l-2-1v4l-1 1-1 4v2l-5 12-13 32-3 4h-2v2l-5 7v3l1 2v2l-1 1-2 3 1 6 1 3z" class="or"/><path d="m826 189-2 1-3-2-3-6h-2v-2l-2-1-70 14-1-6-4 3-1 1-3 3-3 1 5 30 3 20 17-3 61-12 1-2 2-1h3l1-2h2l2-3 1-2 4-3-5-3-2-1-1-3-3-1v-4l1-1 1-2-2-1 3-6v-2l2-2z" class="pa"/><path d="m883 171-1-1-3-2v-2h-1l-1-3-6 3 3 12v3l6-4v-3l-1-1v-2h-1l1-1v-1h1l1 2v1l-1-1 1 2v1l-1-1v2h1l1-1v-3l2 4 1-1zm-4 12 1-1-1-1-1 1z" class="ri"/><path d="m772 350-19 3-1-3-3-3-1 2h-1v-2l-23 2-7 4h-2l-4 2v2l-2 1-2 3 1 2 6 3h2l4 4v2l4 5 3 2h1l2 1 1 3 2 1 2 1 3 2v2l3 3 5 2 3 7 1 2 3 2 3 5 1 3 4 1 1-2 2-1 1-2 3-2v-3l-1-1h3l2-2 3-2 2-3 5-5-1-1 1-2h1v1l1-1h1l1-1 2-2v-6l1-2 3-6 3-3 2-1z" class="sc"/><path d="m397 126 46 2h29v3l-1 2-3 1v2l1 2 1 2 2 1 2 1v40h-3v2l2 1-1 1-1 1 1 1 1 1 1 2-2 5-1 4 1 1 1 1v2h-3l-1-3-1-1-6-2-1-2h-2l-1 1-1-1h-3l-1 1-2-1-1 2h-2l-2-2h-2l-4-3-37-2-52-3 4-44 2-21z" class="sd"/><path d="m621 365 46-4 23-3v-5l1-1h2l1-1 1-4 4-3h4l3-3 1-1 4-3 1-3 4-3h1v1l1 1 1-1 1-2 3-3 3 2 2-6 2-1h1v-6l-4 1v1l-29 3-6 2-20 1-6 1-17 1-3 1-22 2-1-1h-4l2 3-1 1-23 2-1 1-1-1h-1v1l1 1v1l-2 1 2 1-1 1h-2l1 1 1 1-1 1-1 2v1l1 1h-2v1l1 1-1 1h-1l-1 1-1 1h2v1l-1 2v1l-2-1v4l-1-1-1 1h1v1l-1 1 2 1-1 2h1l-1 1h-1l-1 2-1 1z" class="tn"/><path d="m282 429 1-3 34 4 32 2 8-99 53 3-1 43 2 1 3 3h1l2-1 1 1 1 1 1-2 3 2v3l1 1 3-1 3 2h3l3 2 2-2 3 1 2 3h2v2l2 1 3-3 3 2h1v1l2 1 2-2h1v2l1 2 1-1 3-4 1 2 2 1 3-1 2 2h1l1 1 4-1v-2h4l2 1 5-3v2l5-1 1-1 2 1 5 4 6 1 3 3 2-2 4 1v32l1 3 3 3v6l4 4 1 5h1v7l-4 6 2 3-2 1 1 3v4l-2 4v1l-2 1 1 2 1 1h-3l-9 4-3 1-2 2h-1l2-3h2l1-1h-3l-1-1 1-2-1-2h-1l-2 1-2 3v2l4 3h1v1l-2 2-5 4-4 4-3 1-5 3-4 2-5 2-4 2 4-3v-3h-2l-1 1-2 1-2-1v-1h-2l1 2h1l2 1 1 2v1l-4 1-2 1-1-2-1 2 1 2-3 2h-2l-1 2-1 3-2 1h-2l-1 1v1l1 1 1 1-2 3v3l-1 2-1 1h-3l2 1 2-1-1 3h-1v1l1 2-2 1v3l2 1v5l-1 1v1l2 1v4l1 2 3 3h-3l-1 2v1h-2l-4-4-2-1h-7l-3-1-4-3-1-1-2 1-4-3-5-2v-1l-1-2-1-4-1-2-2-2v-1l-1-1v-5l-1-1v-3l-1-3-1-2h-1l-4-3v-2l-1-2h-1l-1-2-2-2-3-2v-2l-1-1v-2h1l-2-2 1-1-2-2v-2l-3-5v-2l-2-3-5-4v-2l-3-1v-2h-2v-1l-3-3-1-1-1 1h-3l-2-1h-5l-4-2-1 2-2-1-4 2-1 2-2 4-2 4-1 1h-1l-1 2-1 1v1h-3l-2-1h-1l-2-3h-4l-1-3h-2l-2-1-3-3v-1l-2-1h-1l-3-3v-2l-2-4v-2l-1-1 1-2v-2l-3-4v-4l-2-2v-1h-1l-1-1-2-2h-1l-2-2v-1l-3-2-1-2-2-2-3-4-3-2-2-2v-1l-2-1-1-4-3-1zm175 138h1l-1-4-3-13v-8l5-10 6-8 7-6h-1l-2 1-4 2-1 1-8 12-3 8v9l4 12z" class="tx"/><path d="m233 218 3-22-47-8-21 109 46 8 40 6 11-88z" class="ut"/><path d="m859 102-1 4 2 3v3l-1 2h-2v2l-2 1-1 1 1 3v4l-1 2 1 2-2 2 1 2-1 1 1 5v4l1 2v2l-1 2v1l2 3-12 2-1-1v-2l-3-14-2-1-1 1-1-2 1-2-3-6v-4l1-1-1-2v-2l-2-3v-4l-1-1v-4l27-7z" class="vt"/><path d="m835 265-1 3v1l1-1zm-35-7-1-1h1l1-1 1-1v-1l-1-1v-1h-1l-1-1h-2v-1h-3l-1-1h-1v-1h1v-1l-1-1h-2l-2-1v1l-1 2v2l-10-5v1l1 1-1 3v2l-1 1-1 2-1 1-1 2-1 1-1 2-2-1-3 9-1 1h-3l-1-2-2-1v5l-2 2 1 1-3 2 1 2-4 6-1 4 2 1-2 2v1l-2 2-1-1-4 3-2-1v2h1l-1 1-5 2-3-1-1 1-2 2h-2l-5-2v-2h-1v-2l-5 6-3 1-3 3v3l-3 1v2l-1 1-2 1v1l-1 1-7 4 29-3v-1l4-1v1l30-4 39-7 29-6-1-1h1l1 1v-2l-1-2 2 2 1 2v-2l-4-5v-2l-2 1 1 1h-1v-1l-1 1-1-1h-2l1 2h-1v-1l-1 1h-1l-1 1v-3h-1l-2-1v-2l-1-1-1 1-1-1-2 1v-1l1-1 1 1 2-1 1 1v1l2 1 1 1h1v1l2-1v-3l-1 1h-1l2-1-1-1-1 1-1-2-1 1-3-2-1-2 3 2 1 1 2-1-2-1 1-1h-1 1l-1-1 1 1 1-1v1l1 1h1v-1l-1-3h-2l1-2h-6v-2l-2-1-2-2-3-1 3 1 1 1 2 1 3 2v-1l1 1h2v-4l-1-1 1 1v-2l-3-1-1-1h-2l1-1h-2v-1h-2v1l-1-1h-3l-1-1-1-1v-2h-1l-1 1-1 1h-2l-1-1 1-3v-3zm22 12h1v-1zm8 14-1 3 1-1zm-2-15v2l-2 1h1l-1 4v8l2 4v-2l1-3-1-2 1-1v-1l1-1h-1l1-1 1 1-1 1v4l1-2 1-3v-3l-1-2 1-2 1-2v-3l-4 1z" class="va"/><path d="m162 84 1 4-2 4-30-7-3 1-5-1-2-1-1 1h-8l-1 1-4-1-1-1h-1l-5 1-1-1-2 1-1-2-2-1-1-1-1-1-3 1-2-1h-1l-1 1h-6l-6-4 1-5v-5l-4-3h-3l-1-1 1-1-1-1h-1l-2-2-1 1h-2l-1-2h-2l3-8-1 6 1 1v-2l2 2-1-2 1-4h2l-1-2h-3l1-4v1l1 1v-2h4l-3-1-1-2-2 2 1-4v-8l1-6-1-2-1-2v-7l2-2v-2h1l8 8 4 2 5 2h4v3l1-2h1v3l1-2 1-1 1 1-2 1 1 1v-1h1v2h-1v2l-1 1-2 3 1-3h-2v2l-4 3v1l-2 2v1h4l1-1-4 1v-1l2-3 2-1h2l1-1 3-3v-1h1v4h-1l-1 1-1-1v3l-1-1v1l-1 1h2l1 2-1 2-1 1v1h-1l-1-1 1-1-1-1v1l-1 2-1 1v-2l1-1v-1l-2 1 1 2-1 1-2-1-1 1h2v2l1-2v2-1l1 1h2v-1l2-1v-2l1 1v1h1v-2h2v-5h1l-1-2 1-1v-2l3-2h1v-2l-1-1v-4l-1 1 1 3h-1l-1-2v-2l2-1v1l1-1-2-2-1-2v2l1 1-1 1-1-1-1 1 1 1v4l1-1 1 2v2h-2v-1l-1-2v-3l-1-2 2-3 1-4h1l1 3v-3l1 1v-4h-1l-1 2-1-3h2l-2-5 2-1 25 8 32 8 24 5zM83 44h1v1h-1v1l-1-1zm5-4-1 2v1l1-1h1zm0-22v1h2v-1l1-2-1-1-1 2v-2l-1 1-1 1zm3-5 1 1h-1l-1 1v-3zm-3-2h-1l1 1zm-1 3h1v1h1v-3h-1zm-2-1v3l1 1 1-2zm1-1-1-1zm4-7h-1v1l1 1zm-1 33v-3h-1v2z" class="wa"/><path d="M723 298v1h1v2l5 2h2l2-2 1-1 3 1 5-2 1-1h-1v-2l2 1 4-3 1 1 2-2v-1l2-2-2-1 1-4 4-6-1-2 2-2v-1l2-2v-5l2 1 1 2h3l1-1 3-9 2 1 1-2 1-1 1-2 1-1 1-2 1-1v-2l1-3-1-1v-1l10 5v-2l1-2v-1h-1v-2h-1v-1l-1-1v-1h-3l-2-1h-1l-1 1h-1l-2 3-3 1-2-1-3 4-2-1-3 4-1 2-2 1-2-11-17 3-3-20-2 1 1 2v5l-1 3v5l-1 4 1 1-1 2-1 1-2 3-2 2-2 2-1-1-2 1v2h-1l-2 2v2h-1l2 2v1l-1 1h-1l-1 1v-2l-2-1-1 3v2l-1 1 1 4-2 1v3h-2l-3 1v2l1 1-1 3 2 2 1 1h1v1l4 6h2l1 2h3z" class="wv"/><path d="m611 144-3 1v2l-2 4v3h1l1-2 2-1 1-4 4-1 1-4v-1l1-2 1-1v-1l1-1h2v2h-1v3l-1 1-1 4-1 1-3 7v4l1 2v1l-3 2 1 2-1 3v5l-1 4-1 5 1 2h-1l1 2v1l1 1v3l1 1v7l-46 3-1-3-3-1-3-1-2-6v-2l2-3-1-1-2-2v-3l-1-4-1-3-2-3-3-1-5-3v-4l-7-3v-1h-3l-2-3-2-1v-5l-1-2 1-5 1-2v-3l-2-1h-1v-2l2-6 6-4v-13l1 1v-2h1l2 1h3l7-3v-1h1l1-1v1l2-1 2-2v1l1-1 3 1-1 2-1 1v2l-1 1v1l2-1v-1l4 2h2l1 1 3 4 17 4 2 1h4l1 1h7l2 2-1 1v1h4l1 2 1 4-2 3h2l1-1 1 1-1 3 1 2h1zm-49-37h-1l-1 1v1l1-1zm1-1h-1v1zm-1-2v1h2v-1zm3-3-1 2 2-1zm58 32h-2l-1 2 2 1z" class="wi"/><path d="m355 144-51-6-57-8-2 11-8 55-4 22 32 5 45 5 38 4 3-44z" class="wy"/></g><path fill="none" stroke="#EEE" stroke-width="5" d="M215 493v55l36 45M0 425h147l68 68h85l54 54v46" class="separator"/></svg>